<svg width="866" height="683" viewBox="0 0 866 683" fill="none" xmlns="http://www.w3.org/2000/svg">
<path d="M777.14 341.45C777.14 344.517 777.1 347.573 777.02 350.62C777.02 352.2 776.92 353.77 776.85 355.34C775.172 396.6 765.67 437.166 748.85 474.88C747.85 477.02 746.92 479.16 745.91 481.28C745.3 482.59 744.68 483.88 744.04 485.18C738.109 497.294 731.429 509.026 724.04 520.31C708.137 544.681 689.074 566.837 667.35 586.2C663.303 589.807 659.163 593.317 654.93 596.73C651.85 599.21 648.727 601.633 645.56 604C590.259 645.312 523.328 668.114 454.308 669.153C385.287 670.193 317.7 649.418 261.18 609.79C259.07 608.31 256.98 606.79 254.91 605.27C247.577 599.857 240.49 594.15 233.65 588.15L233.48 588C228.047 583.253 222.78 578.323 217.68 573.21C195.556 551.126 176.699 525.996 161.68 498.58C157.62 491.173 153.847 483.593 150.36 475.84C149.36 473.55 148.36 471.26 147.36 468.95C146.513 466.95 145.687 464.93 144.88 462.89C125.059 413.157 117.719 359.327 123.504 306.103C129.288 252.879 148.019 201.882 178.061 157.568C208.103 113.254 248.541 76.9717 295.84 51.8927C343.14 26.8137 395.863 13.7008 449.4 13.7C569.17 13.7 673.94 78 731.1 173.86C733.1 177.193 735.04 180.583 736.92 184.03C740.427 190.41 743.72 196.92 746.8 203.56C748.86 207.97 750.8 212.45 752.68 216.96C768.886 256.461 777.196 298.754 777.14 341.45V341.45Z" fill="#00F279"/>
<path opacity="0.7" d="M777.14 341.45C777.14 344.517 777.1 347.573 777.02 350.62C777.02 352.2 776.92 353.77 776.85 355.34C775.172 396.6 765.67 437.166 748.85 474.88C747.85 477.02 746.92 479.16 745.91 481.28C745.3 482.59 744.68 483.88 744.04 485.18C738.109 497.294 731.429 509.026 724.04 520.31C708.137 544.681 689.074 566.837 667.35 586.2C663.303 589.807 659.163 593.317 654.93 596.73C651.85 599.21 648.727 601.633 645.56 604C590.259 645.312 523.328 668.114 454.308 669.153C385.287 670.193 317.7 649.418 261.18 609.79C259.07 608.31 256.98 606.79 254.91 605.27C247.577 599.857 240.49 594.15 233.65 588.15L233.48 588C228.047 583.253 222.78 578.323 217.68 573.21C195.556 551.126 176.699 525.996 161.68 498.58C157.62 491.173 153.847 483.593 150.36 475.84C149.36 473.55 148.36 471.26 147.36 468.95C146.513 466.95 145.687 464.93 144.88 462.89C125.059 413.157 117.719 359.327 123.504 306.103C129.288 252.879 148.019 201.882 178.061 157.568C208.103 113.254 248.541 76.9717 295.84 51.8927C343.14 26.8137 395.863 13.7008 449.4 13.7C569.17 13.7 673.94 78 731.1 173.86C733.1 177.193 735.04 180.583 736.92 184.03C740.427 190.41 743.72 196.92 746.8 203.56C748.86 207.97 750.8 212.45 752.68 216.96C768.886 256.461 777.196 298.754 777.14 341.45V341.45Z" fill="white"/>
<path d="M756.24 460.66C752.897 457.221 750.384 453.064 748.892 448.506C747.4 443.948 746.968 439.11 747.63 434.36C747.96 432.136 748.17 429.896 748.26 427.65C748.46 420.08 750.4 402.09 763.88 397.59C763.88 397.59 810.38 372.43 819.94 393.45C819.94 393.45 840.94 425.62 793.5 468.94C793.5 468.94 775.61 486.12 756.24 460.66Z" fill="#00F279"/>
<path opacity="0.1" d="M756.24 460.66C752.897 457.221 750.384 453.064 748.892 448.506C747.4 443.948 746.968 439.11 747.63 434.36C747.96 432.136 748.17 429.896 748.26 427.65C748.46 420.08 750.4 402.09 763.88 397.59C763.88 397.59 810.38 372.43 819.94 393.45C819.94 393.45 840.94 425.62 793.5 468.94C793.5 468.94 775.61 486.12 756.24 460.66Z" fill="black"/>
<path d="M797.62 311.43C795.12 363.01 772.16 402.38 772.16 402.38C749.55 450.48 719.92 436.13 719.92 436.13C710.69 462.25 701.14 463.83 701.14 463.83C693.96 465.13 686.4 461.38 679.14 455.06C657.63 436.41 638.48 395.36 638.48 395.36C615 355.23 653.68 284.85 653.68 284.85C680 223.5 717.7 218 717.7 218C786.49 198.89 795.09 271.49 795.09 271.49C797.458 284.663 798.307 298.064 797.62 311.43V311.43Z" fill="#00F279"/>
<path opacity="0.1" d="M797.62 311.43C795.12 363.01 772.16 402.38 772.16 402.38C749.55 450.48 719.92 436.13 719.92 436.13C710.69 462.25 701.14 463.83 701.14 463.83C693.96 465.13 686.4 461.38 679.14 455.06C679.14 455.06 707.78 464.36 716.91 422.71C716.89 422.71 772.74 428.59 797.62 311.43Z" fill="white"/>
<path d="M793.5 456.94C793.5 456.94 783.67 475.94 745.89 481.28L743.81 481.56L744.02 485.18C738.089 497.294 731.409 509.026 724.02 520.31V514.8C724.02 514.8 717.66 499.19 711.61 488.05L688.67 444.41L696.95 445.68C696.95 445.68 707.79 473.68 724.02 497.92L726.65 384.86C726.65 384.86 711.55 296.77 692.18 275.93H702.69C702.69 275.93 719.25 312.87 728.48 353V275.93H742.82C742.82 275.93 733.26 338.35 734.82 381.99L734.51 441.86C734.51 441.86 762.51 359.05 771.45 350.45L776.95 350.62L781.64 350.77C779.919 352.182 778.295 353.709 776.78 355.34C767.854 364.881 761.339 376.419 757.78 388.99C757.78 388.99 743.13 429.45 743.13 446.64L744.13 475.31C744.13 475.31 745.94 475.23 748.83 474.88C758.01 473.76 778.17 469.88 786.17 456.94H793.5Z" fill="#3E3D57"/>
<path d="M667.37 542.51V586.2C663.323 589.807 659.183 593.317 654.95 596.73V542.51H667.37Z" fill="#3E3D57"/>
<path d="M539.65 571.49C539.65 571.49 570.92 546.22 606.65 566.89C606.65 566.89 605.77 584.03 600.65 592.89C600.65 592.89 609.3 586.89 616.2 573.45C616.2 573.45 630.51 583.17 633.69 604.02L570.43 596.95L543.53 583.5L539.65 571.49Z" fill="#00F279"/>
<path opacity="0.1" d="M539.65 571.49C539.65 571.49 570.92 546.22 606.65 566.89C606.65 566.89 605.77 584.03 600.65 592.89C600.65 592.89 609.3 586.89 616.2 573.45C616.2 573.45 630.51 583.17 633.69 604.02L570.43 596.95L543.53 583.5L539.65 571.49Z" fill="white"/>
<path d="M449.54 456.95C558.887 456.95 647.53 368.307 647.53 258.96C647.53 149.613 558.887 60.97 449.54 60.97C340.193 60.97 251.55 149.613 251.55 258.96C251.55 368.307 340.193 456.95 449.54 456.95Z" fill="#00F279"/>
<path d="M597.27 538.79C596.65 554.84 580.9 572.79 580.9 572.79V588.53L578.48 587.84L572.26 586V555.46C553.74 536.32 542 501.74 542 501.74L547 496.01C549.682 506.786 553.749 517.169 559.1 526.9L573.43 531.05V495.05L578.5 486.8L579.7 484.85V567.14C590.21 558 593.89 539.39 593.89 539.39L597.27 538.79Z" fill="#3E3D57"/>
<path opacity="0.1" d="M597.27 538.79C596.65 554.84 580.9 572.79 580.9 572.79V588.53L578.48 587.84V486.84L579.68 484.89V567.18C590.19 558.04 593.87 539.43 593.87 539.43L597.27 538.79Z" fill="black"/>
<path d="M340.55 581.38L366.17 529.7L456.56 471.34H481.83L502.81 512.62L536.27 555.32L546.24 581.38L448.02 605.5L340.55 581.38Z" fill="#3E3D57"/>
<path opacity="0.3" d="M383.25 578.1L395.35 531.48L481.83 471.34L502.81 512.62L402.47 550.7L383.25 578.1Z" fill="black"/>
<path opacity="0.1" d="M432.61 602.04L423.11 552.47L502.81 512.62L536.27 555.32L546.24 581.38L448.02 605.5L432.61 602.04Z" fill="black"/>
<path opacity="0.2" d="M395.35 531.48L366.17 529.7L456.56 471.34H481.83L395.35 531.48Z" fill="black"/>
<path opacity="0.2" d="M402.47 550.7L423.11 552.47L502.81 512.62L402.47 550.7Z" fill="black"/>
<path d="M367.18 534.22V534.28C366.36 535.75 365.46 537.28 364.51 538.69C358.02 548.64 348.51 558.24 334.78 566.69C331.696 568.595 328.316 569.974 324.78 570.77C320.584 571.721 316.337 572.429 312.06 572.89C306.091 573.54 300.051 572.951 294.32 571.16C279.08 566.37 250.22 551.22 242.1 504.51C242.1 504.51 237.91 475.4 252.49 451C257.792 442.316 261.104 432.566 262.19 422.45C263.079 413.38 262.368 404.224 260.09 395.4C260.09 395.4 238.3 324.25 303.28 308.4C307.731 307.312 312.344 307.051 316.89 307.63C320.587 308.089 324.191 309.122 327.57 310.69C341.29 317.03 360.76 332.3 361.91 368.05C362.09 375.979 361.079 383.891 358.91 391.52C355.82 402.8 351.91 426.2 364.36 447.87C366.281 451.16 367.953 454.59 369.36 458.13C374.89 472.28 383.83 504.35 367.18 534.22Z" fill="#00F279"/>
<path opacity="0.1" d="M367.18 534.22V534.28C366.36 535.75 365.46 537.28 364.51 538.69C358.02 548.64 348.51 558.24 334.78 566.69C331.696 568.595 328.316 569.974 324.78 570.77C320.584 571.721 316.337 572.429 312.06 572.89C306.091 573.54 300.051 572.951 294.32 571.16C279.08 566.37 250.22 551.22 242.1 504.51C242.1 504.51 237.91 475.4 252.49 451C257.792 442.316 261.104 432.566 262.19 422.45C263.079 413.38 262.368 404.224 260.09 395.4C260.09 395.4 238.3 324.25 303.28 308.4C307.731 307.312 312.344 307.051 316.89 307.63C320.587 308.089 324.191 309.122 327.57 310.69C341.29 317.03 360.76 332.3 361.91 368.05C362.09 375.979 361.079 383.891 358.91 391.52C355.82 402.8 351.91 426.2 364.36 447.87C366.281 451.16 367.953 454.59 369.36 458.13C374.89 472.28 383.83 504.35 367.18 534.22Z" fill="white"/>
<path opacity="0.1" d="M367.18 534.22V534.28L364.51 538.69C358.02 548.64 348.51 558.24 334.78 566.69C331.696 568.595 328.316 569.974 324.78 570.77C320.584 571.721 316.337 572.429 312.06 572.89C306.091 573.54 300.051 572.951 294.32 571.16C279.08 566.37 250.22 551.22 242.1 504.51C242.1 504.51 237.91 475.4 252.49 451C257.792 442.316 261.104 432.566 262.19 422.45C263.079 413.38 262.368 404.224 260.09 395.4C260.09 395.4 238.3 324.25 303.28 308.4C307.731 307.312 312.344 307.051 316.89 307.63C312.24 309.14 293.61 317.31 293.31 350.82C293.304 357.028 294.279 363.197 296.2 369.1C298.43 376.19 300.12 390.86 287.86 411.93C283.595 419.115 281.208 427.259 280.92 435.61C280.57 449.96 285.31 469.82 310.37 481.71C314.057 483.42 317.939 484.672 321.93 485.44C332.76 487.65 362.14 496.92 367.18 534.22Z" fill="white"/>
<path d="M233.66 588.15L233.49 588C228.057 583.253 222.79 578.323 217.69 573.21L219.62 443.14L230 440.25C230 440.25 233.75 564.56 233.66 588.15Z" fill="#3E3D57"/>
<path d="M182.52 402.65L171.25 440.25C164.54 463.95 163.71 496.81 163.71 496.81L161.71 498.58C157.65 491.173 153.877 483.593 150.39 475.84V469.77C149.39 469.53 148.39 469.26 147.39 468.95C121.7 460.88 113.25 429.74 113.25 429.74L117.08 427.1C122.35 452.42 136.89 460.39 144.91 462.89C146.692 463.466 148.534 463.838 150.4 464C156.1 408.38 137.21 346.06 137.21 346.06L142.84 340.79C145.84 349.9 152.55 385.37 152.55 385.37L151.84 340.79H159L157.56 479.34L177.46 406.22L182.52 402.65Z" fill="#3E3D57"/>
<path d="M147.88 420.38C147.465 422.694 146.794 424.954 145.88 427.12C143.03 433.58 138.73 435.4 134.75 435.38C131.201 435.182 127.768 434.046 124.8 432.09C113.97 424.65 100.11 436.68 100.11 436.68C100.11 436.68 72.3 454.68 62.96 432.61C60.4061 427.766 58.8552 422.457 58.4 417C57.9078 411.593 58.6427 406.144 60.55 401.06C61.9342 397.429 63.874 394.035 66.3 391C70.2399 386.111 75.1966 382.137 80.826 379.355C86.4554 376.573 92.6228 375.05 98.9 374.89C112.9 374.38 134.73 377.72 144.64 395.2C151 406.48 147.88 420.38 147.88 420.38Z" fill="#00F279"/>
<path opacity="0.3" d="M147.88 420.38C147.465 422.694 146.794 424.954 145.88 427.12C143.03 433.58 138.73 435.4 134.75 435.38C131.201 435.182 127.768 434.046 124.8 432.09C113.97 424.65 100.11 436.68 100.11 436.68C100.11 436.68 72.3 454.68 62.96 432.61C60.4061 427.766 58.8552 422.457 58.4 417C57.9078 411.593 58.6427 406.144 60.55 401.06C61.9342 397.429 63.874 394.035 66.3 391C70.2399 386.111 75.1966 382.137 80.826 379.355C86.4554 376.573 92.6228 375.05 98.9 374.89C112.9 374.38 134.73 377.72 144.64 395.2C151 406.48 147.88 420.38 147.88 420.38Z" fill="white"/>
<path opacity="0.3" d="M147.88 420.38C147.465 422.694 146.794 424.954 145.88 427.12C145.73 404.96 130.74 393.67 130.74 393.67C104.36 369 60.55 401.1 60.55 401.1C61.9304 397.455 63.8704 394.048 66.3 391C70.2399 386.111 75.1966 382.137 80.826 379.355C86.4554 376.573 92.6228 375.05 98.9 374.89C112.9 374.38 134.73 377.72 144.64 395.2C151 406.48 147.88 420.38 147.88 420.38Z" fill="white"/>
<path d="M255 311.07C254.613 317.298 253.689 323.481 252.24 329.55V329.55C252.113 330.117 251.973 330.697 251.82 331.29C245.7 355.23 228.07 387.53 177.77 350.94C177.77 350.94 156.33 335.21 119.36 356.94C119.36 356.94 87.01 379.15 66.26 356.94C66.26 356.94 30.17 320.86 44.61 272.39C48.78 258.39 57.15 243.39 71.84 227.85C72.84 226.8 73.84 225.73 74.94 224.67C74.94 224.67 105.84 191.36 164.73 203.91C164.72 203.9 275.76 214.52 255 311.07Z" fill="#00F279"/>
<path opacity="0.1" d="M255 311.07C254.613 317.298 253.689 323.481 252.24 329.55V329.55C252.113 330.117 251.973 330.697 251.82 331.29C245.7 355.23 228.07 387.53 177.77 350.94C177.77 350.94 156.33 335.21 119.36 356.94C119.36 356.94 87.01 379.15 66.26 356.94C66.26 356.94 30.17 320.86 44.61 272.39C48.78 258.39 57.15 243.39 71.84 227.85C72.84 226.8 73.84 225.73 74.94 224.67C74.94 224.67 105.84 191.36 164.73 203.91C164.72 203.9 275.76 214.52 255 311.07Z" fill="white"/>
<path opacity="0.1" d="M251.81 331.29C245.69 355.23 228.06 387.53 177.76 350.94C177.76 350.94 156.32 335.21 119.35 356.94C119.35 356.94 87 379.15 66.25 356.94C66.25 356.94 30.16 320.86 44.6 272.39C44.6 272.39 47.42 368.62 115.01 340.81C115.01 340.81 148.8 319.92 197.07 337.22C197.07 337.22 233.07 361.27 251.56 330.63L251.81 331.29Z" fill="white"/>
<path opacity="0.2" d="M255 311.07C254.613 317.298 253.689 323.481 252.24 329.55V329.55C246.16 339.07 241.56 341.44 241.56 341.44C241.32 321.13 238.43 303.54 234.17 289.53C222.29 250.42 186.75 223.3 145.92 221.47C107.32 219.74 71.84 227.85 71.84 227.85C72.84 226.8 73.84 225.73 74.94 224.67C74.94 224.67 105.84 191.36 164.73 203.91C164.72 203.9 275.76 214.52 255 311.07Z" fill="white"/>
<path d="M166.19 382.25C166.19 382.25 164.26 353.38 193.14 353.32C193.14 353.32 219.84 356.82 215.26 387.84C215.26 387.84 212.95 407.24 198.72 400.44L166.19 382.25Z" fill="#00F279"/>
<path opacity="0.3" d="M166.19 382.25C166.19 382.25 164.26 353.38 193.14 353.32C193.14 353.32 219.84 356.82 215.26 387.84C215.26 387.84 212.95 407.24 198.72 400.44L166.19 382.25Z" fill="white"/>
<path d="M291.3 570.12L290.17 597.88L261.17 609.79C259.06 608.31 256.97 606.79 254.9 605.27C247.513 599.81 240.37 594.053 233.47 588L233.33 565L245.91 560C245.91 560 240.36 585.23 241.54 585C242.72 584.77 255.31 553.77 255.31 553.77H264L262 585L272.67 559.71C272.67 559.71 278.69 565.19 291.3 570.12Z" fill="#00F279"/>
<path d="M726.69 546.88H597.27C618.2 541.04 632.53 509.19 640.83 483.74C644.364 472.937 647.286 461.943 649.58 450.81H609.93C622.05 435.81 632.33 405.81 632.33 405.81H623.15C628.7 401.14 634.15 391.52 638.46 382.29C641.86 374.941 644.887 367.424 647.53 359.77H607.36C617.27 353.15 629.36 324.16 629.36 324.16H611C631.39 319.27 644.53 286.9 652.34 257.78C656.466 242.171 659.635 226.325 661.83 210.33C661.862 210.073 661.988 209.837 662.184 209.667C662.379 209.497 662.631 209.406 662.89 209.41C663.152 209.411 663.405 209.508 663.601 209.683C663.796 209.858 663.921 210.099 663.95 210.36C674.32 299.72 714.79 324.16 714.79 324.16H695.49C696.572 327.407 697.91 330.564 699.49 333.6V333.6C705.027 344.389 713.604 353.321 724.16 359.29H677.72C688.11 400.34 713.83 414.68 713.83 414.68H696.51C697.51 417.6 698.59 420.27 699.71 422.74C710.77 447.13 726.71 450.82 726.71 450.82H674.75C694.66 502.38 708.4 509.89 713.32 510.77H695C695.21 511.3 695.43 511.82 695.64 512.34C709 544.58 726.69 546.88 726.69 546.88Z" fill="#00F279"/>
<path opacity="0.2" d="M726.69 546.88H597.27C618.2 541.04 632.53 509.19 640.83 483.74C644.364 472.937 647.286 461.943 649.58 450.81H609.93C622.05 435.81 632.33 405.81 632.33 405.81H623.15C628.7 401.14 634.15 391.52 638.46 382.29C641.86 374.941 644.887 367.424 647.53 359.77H607.36C617.27 353.15 629.36 324.16 629.36 324.16H611C631.39 319.27 644.53 286.9 652.34 257.78C656.466 242.171 659.635 226.325 661.83 210.33C661.862 210.073 661.988 209.837 662.184 209.667C662.379 209.497 662.631 209.406 662.89 209.41C663.152 209.411 663.405 209.508 663.601 209.683C663.796 209.858 663.921 210.099 663.95 210.36C674.32 299.72 714.79 324.16 714.79 324.16H695.49C696.572 327.407 697.91 330.564 699.49 333.6V333.6C705.027 344.389 713.604 353.321 724.16 359.29H677.72C688.11 400.34 713.83 414.68 713.83 414.68H696.51C697.51 417.6 698.59 420.27 699.71 422.74C710.77 447.13 726.71 450.82 726.71 450.82H674.75C694.66 502.38 708.4 509.89 713.32 510.77H695C695.21 511.3 695.43 511.82 695.64 512.34C709 544.58 726.69 546.88 726.69 546.88Z" fill="black"/>
<path opacity="0.2" d="M695.52 324.11C696.602 327.357 697.94 330.514 699.52 333.55C693.14 322.21 686.62 311.41 682.42 304.55C679.874 300.372 676.931 296.451 673.63 292.84C660.72 278.84 654.94 266.13 652.36 257.7C656.486 242.091 659.655 226.245 661.85 210.25C661.882 209.993 662.008 209.757 662.204 209.587C662.399 209.417 662.651 209.326 662.91 209.33C663.172 209.331 663.425 209.428 663.621 209.603C663.816 209.778 663.941 210.019 663.97 210.28C674.34 299.64 714.81 324.08 714.81 324.08L695.52 324.11Z" fill="black"/>
<path opacity="0.2" d="M696.51 414.65C697.51 417.57 698.59 420.24 699.71 422.71C699.71 422.71 665.15 414.91 656.23 402.38C656.23 402.38 645.9 391.82 638.47 382.24C641.87 374.891 644.897 367.374 647.54 359.72L677.73 359.26C688.12 400.31 713.84 414.65 713.84 414.65H696.51Z" fill="black"/>
<path opacity="0.2" d="M695 510.74C695.21 511.27 695.43 511.79 695.64 512.31C695.25 512.14 682.79 506.53 673.07 506.53C673.07 506.53 659.4 508.21 651.07 493.89C649.182 490.537 646.593 487.631 643.48 485.37C642.622 484.755 641.716 484.21 640.77 483.74C644.304 472.937 647.226 461.943 649.52 450.81H674.68C694.59 502.37 708.33 509.88 713.25 510.76L695 510.74Z" fill="black"/>
<path d="M746.8 203.56H546.43C557.223 199.114 566.555 191.736 573.37 182.26C583.56 165.69 586.75 167.13 586.75 167.13C593.12 165.37 600.45 178.27 600.45 178.27C609.52 189.27 615.09 190.69 615.09 190.69C628.79 198.5 646.76 178.75 646.76 178.75C667.12 155.81 672.76 153.88 672.76 153.88C689.65 139.88 706.06 164.75 706.06 164.75C715.38 180.75 728.32 175.09 728.32 175.09C729.27 174.65 730.2 174.23 731.1 173.86C733.1 177.193 735.04 180.583 736.92 184.03C740.433 190.41 743.727 196.92 746.8 203.56Z" fill="white"/>
<path d="M406 130.68H198.41C206.714 120.787 215.592 111.39 225 102.54C228.08 103.47 238.51 105.4 246.36 91.87C246.36 91.87 262.79 67.04 279.66 81.01C279.66 81.01 285.3 82.94 305.66 105.87C305.66 105.87 323.66 125.63 337.32 117.82C337.32 117.82 342.9 116.39 351.98 105.4C351.98 105.4 359.3 92.5 365.67 94.25C365.67 94.25 368.86 92.82 379.05 109.38C385.865 118.86 395.202 126.24 406 130.68V130.68Z" fill="white"/>
<path d="M587.85 544.43C587.85 544.43 537.32 560.56 514 510C514 510 566.18 548.22 580.65 498.53C580.65 498.53 554.77 515.09 511.03 502.78C511.03 502.78 496.7 474.73 506.03 421.22C506.697 417.26 507.517 413.167 508.49 408.94C509.79 403.22 511.35 397.23 513.21 391.01C513.21 391.01 522.21 391.15 539.57 373.92C539.57 373.92 526.57 377 518.74 371.53C523.191 359.568 528.889 348.109 535.74 337.34C544.38 324.12 555.88 311.81 569.28 310.43C575.051 310.088 580.822 311.116 586.12 313.43C593.253 316.574 599.025 322.169 602.39 329.2C602.39 329.2 593.52 332.2 586.39 332.06C586.39 332.06 592.84 349.37 611.66 344.56C611.66 344.56 633.16 392.02 638.28 414.56C638.28 414.56 614.72 425.15 611.66 436.41L641.01 427.2L644.42 444.26C644.42 444.26 627.69 447.08 628.03 456.94C628.03 456.94 633.43 452.2 645.37 451.57C645.23 451.58 663.87 538.05 587.85 544.43Z" fill="#00F279"/>
<path opacity="0.1" d="M587.85 544.43C587.85 544.43 537.32 560.56 514 510C514 510 566.18 548.22 580.65 498.53C580.65 498.53 554.77 515.09 511.03 502.78C511.03 502.78 496.7 474.73 506.03 421.22C506.697 417.26 507.517 413.167 508.49 408.94C509.79 403.22 511.35 397.23 513.21 391.01C513.21 391.01 522.21 391.15 539.57 373.92C539.57 373.92 526.57 377 518.74 371.53C523.191 359.568 528.889 348.109 535.74 337.34C544.38 324.12 555.88 311.81 569.28 310.43C575.051 310.088 580.822 311.116 586.12 313.43C593.253 316.574 599.025 322.169 602.39 329.2C602.39 329.2 593.52 332.2 586.39 332.06C586.39 332.06 592.84 349.37 611.66 344.56C611.66 344.56 633.16 392.02 638.28 414.56C638.28 414.56 614.72 425.15 611.66 436.41L641.01 427.2L644.42 444.26C644.42 444.26 627.69 447.08 628.03 456.94C628.03 456.94 633.43 452.2 645.37 451.57C645.23 451.58 663.87 538.05 587.85 544.43Z" fill="black"/>
<path opacity="0.1" d="M554.31 390.27C554.31 390.27 534.31 418.14 505.95 421.27C506.617 417.31 507.437 413.217 508.41 408.99C524.398 404.591 539.806 398.307 554.31 390.27V390.27Z" fill="black"/>
<path opacity="0.1" d="M586 313.46C579.37 312.64 573.39 315.08 569.09 317.7C565.664 319.847 562.675 322.623 560.28 325.88C548.63 341.38 535.62 337.38 535.62 337.38C544.26 324.16 555.76 311.85 569.16 310.47C574.931 310.125 580.701 311.149 586 313.46Z" fill="black"/>
<path opacity="0.1" d="M568.31 448C568.31 448 581.02 399.89 605.52 402.43C606.008 402.482 606.475 402.653 606.881 402.928C607.288 403.203 607.62 403.573 607.85 404.007C608.08 404.44 608.2 404.923 608.2 405.413C608.2 405.904 608.08 406.387 607.85 406.82C606.48 409.28 603.41 413.01 596.62 418.18C595.33 419.18 594.07 420.18 592.86 421.27C587.51 426.09 573.51 439 568.31 448Z" fill="black"/>
<path opacity="0.1" d="M578.48 463.84C578.48 463.84 587.48 435 600.61 437.96C600.885 438.019 601.144 438.14 601.365 438.314C601.587 438.488 601.766 438.711 601.888 438.964C602.011 439.218 602.074 439.496 602.072 439.778C602.071 440.06 602.005 440.338 601.88 440.59C601.33 441.76 600 443.44 597.09 445.76C597.09 445.76 585.68 453.83 578.48 463.84Z" fill="black"/>
<path opacity="0.1" d="M618.1 504.51C618.1 504.51 626.55 519.06 637 516.71C639.206 513.292 640.942 509.592 642.16 505.71C642.16 505.71 624.25 507.06 618.1 504.51Z" fill="black"/>
<path d="M303.64 592.84L307.11 355.7C307.118 355.064 307.377 354.457 307.83 354.012C308.283 353.566 308.894 353.317 309.53 353.32V353.32C310.167 353.323 310.777 353.576 311.228 354.025C311.679 354.474 311.935 355.083 311.94 355.72L314.15 594.11L303.64 592.84Z" fill="#3E3D57"/>
<path d="M311.6 517.35C311.6 517.35 333.19 502.22 345.6 448.28C347.111 441.703 348.091 435.014 348.53 428.28C348.99 421.28 349.71 409.67 350.68 392.13C350.713 391.622 350.938 391.147 351.31 390.799C351.681 390.452 352.171 390.259 352.68 390.26C353.21 390.26 353.719 390.471 354.094 390.846C354.469 391.221 354.68 391.73 354.68 392.26C354.79 406.57 353.76 495.26 311.68 529.17L311.6 517.35Z" fill="#3E3D57"/>
<path d="M306.51 543.79V550.48C306.51 550.48 275.93 540.6 282.62 443.14C282.62 443.14 278.8 527.54 306.51 543.79Z" fill="#3E3D57"/>
<path d="M309 513.22C293.28 566.29 267.21 522.87 267.21 522.87C250.87 544.55 241.56 477.71 241.56 477.71C227.71 490.22 225.61 457 225.61 457C221.86 493.19 210.61 477.76 210.61 477.76C198.11 549.32 183.52 522.92 183.52 522.92C157.67 560.29 145.23 522.4 142.93 514.17C142.815 513.751 142.839 513.305 143 512.901C143.16 512.497 143.448 512.156 143.82 511.93C145.32 511.03 148.04 509.34 151.5 506.84C161.24 499.84 176.8 486.47 187.32 466.99C223.04 400.87 222.05 350.99 222.05 350.99H227.26C235.26 404.83 246.36 428.1 246.36 428.1C256.52 464.78 276.91 487.8 291.71 500.38C296.936 504.93 302.6 508.949 308.62 512.38C308.765 512.46 308.881 512.585 308.95 512.737C309.018 512.888 309.036 513.058 309 513.22Z" fill="#00F279"/>
<path opacity="0.3" d="M309 513.22C293.28 566.29 267.21 522.87 267.21 522.87C250.87 544.55 241.56 477.71 241.56 477.71C227.71 490.22 225.61 457 225.61 457C221.86 493.19 210.61 477.76 210.61 477.76C198.11 549.32 183.52 522.92 183.52 522.92C157.67 560.29 145.23 522.4 142.93 514.17C142.815 513.751 142.839 513.305 143 512.901C143.16 512.497 143.448 512.156 143.82 511.93C145.32 511.03 148.04 509.34 151.5 506.84C161.24 499.84 176.8 486.47 187.32 466.99C223.04 400.87 222.05 350.99 222.05 350.99H227.26C235.26 404.83 246.36 428.1 246.36 428.1C256.52 464.78 276.91 487.8 291.71 500.38C296.936 504.93 302.6 508.949 308.62 512.38C308.765 512.46 308.881 512.585 308.95 512.737C309.018 512.888 309.036 513.058 309 513.22Z" fill="black"/>
<path opacity="0.3" d="M309 513.22C293.28 566.29 267.21 522.87 267.21 522.87C250.87 544.55 241.56 477.71 241.56 477.71C227.71 490.22 225.61 457 225.61 457C221.86 493.19 210.61 477.76 210.61 477.76C198.11 549.32 183.52 522.92 183.52 522.92C157.67 560.29 145.23 522.4 142.93 514.17C142.815 513.751 142.839 513.305 143 512.901C143.16 512.497 143.448 512.156 143.82 511.93C145.32 511.03 148.04 509.34 151.5 506.84C151.99 506.66 168.63 500.78 180.38 513.89C180.38 513.89 174.82 488.54 197.04 477.76C197.04 477.76 206.42 472.55 210.93 465.26C210.93 465.26 223.33 441.09 236.12 458.31C237.427 460.102 238.477 462.067 239.24 464.15C241.55 470.26 248.24 486.78 256.01 496.48C257.573 498.41 259.614 499.896 261.93 500.79C265.966 502.455 269.386 505.33 271.72 509.02C271.72 509.02 282.99 502.19 291.72 500.38C296.946 504.93 302.61 508.949 308.63 512.38C308.774 512.462 308.887 512.588 308.954 512.739C309.02 512.89 309.037 513.059 309 513.22V513.22Z" fill="black"/>
<path d="M303.64 390.27C302.54 393.764 301.179 397.17 299.57 400.46C284.57 430.39 263.73 399.22 263.73 399.22C251.92 419.02 238.38 363.44 238.38 363.44C231.08 370.39 227.62 353.32 227.62 353.32C217.56 372.03 211.62 363.1 211.62 363.1C199.81 421.45 187.62 399.57 187.62 399.57C162.75 434.79 148.87 390.77 148.73 390.28C212.28 360.84 223.4 257.18 223.4 257.18L226.17 247.8C227.88 279.06 241.51 312.05 241.51 312.05C261.75 379.77 303.64 390.27 303.64 390.27Z" fill="#00F279"/>
<path opacity="0.3" d="M303.64 390.27C302.54 393.764 301.179 397.17 299.57 400.46C284.57 430.39 263.73 399.22 263.73 399.22C251.92 419.02 238.38 363.44 238.38 363.44C231.08 370.39 227.62 353.32 227.62 353.32C217.56 372.03 211.62 363.1 211.62 363.1C199.81 421.45 187.62 399.57 187.62 399.57C162.75 434.79 148.87 390.77 148.73 390.28C212.28 360.84 223.4 257.18 223.4 257.18L226.17 247.8C227.88 279.06 241.51 312.05 241.51 312.05C261.75 379.77 303.64 390.27 303.64 390.27Z" fill="black"/>
<path opacity="0.3" d="M299.57 400.46C284.57 430.39 263.73 399.22 263.73 399.22C251.92 419.02 238.38 363.44 238.38 363.44C231.08 370.39 227.62 353.32 227.62 353.32C217.56 372.03 211.62 363.1 211.62 363.1C199.81 421.45 187.62 399.57 187.62 399.57C162.75 434.79 148.87 390.77 148.73 390.28C149.31 390.66 179.73 410.43 189.73 385.68C189.73 385.68 193.9 368.68 204.32 363.1C204.32 363.1 213.69 356.1 217.51 345.04C217.51 345.04 222.38 329.75 228.63 341.91C228.63 341.91 230.71 349.11 236.27 353.32C236.27 353.32 242.18 352.78 244.61 367.67C244.61 367.67 246.46 374.58 251.54 373.17C251.54 373.17 256.59 368.43 257.99 385.88C257.99 385.88 261.63 398.76 273.09 398.12C273.11 398.12 290.59 391.63 299.57 400.46Z" fill="black"/>
<path d="M295 286.34C292.54 293.34 289.63 297.69 286.56 300.15C274.9 309.54 260.96 291.9 260.96 291.9C246.37 305.79 238.04 265.9 238.04 265.9C232.13 273.54 224.18 259.01 224.18 259.01C222.18 270.18 213.72 265.21 213.72 265.21C202.26 309.31 191.32 292.3 191.32 292.3C166.12 318.3 156.42 286.05 156.42 286.05C156.42 286.05 207.82 273.89 226.22 181.15C226.22 181.15 235.61 254.44 280.07 279.15L295 286.34Z" fill="#00F279"/>
<path opacity="0.3" d="M295 286.34C292.54 293.34 289.63 297.69 286.56 300.15C274.9 309.54 260.96 291.9 260.96 291.9C246.37 305.79 238.04 265.9 238.04 265.9C232.13 273.54 224.18 259.01 224.18 259.01C222.18 270.18 213.72 265.21 213.72 265.21C202.26 309.31 191.32 292.3 191.32 292.3C166.12 318.3 156.42 286.05 156.42 286.05C156.42 286.05 207.82 273.89 226.22 181.15C226.22 181.15 235.61 254.44 280.07 279.15L295 286.34Z" fill="black"/>
<path opacity="0.3" d="M286.55 300.15C274.89 309.54 260.95 291.9 260.95 291.9C246.36 305.79 238.03 265.9 238.03 265.9C232.12 273.54 224.17 259.01 224.17 259.01C222.17 270.18 213.71 265.21 213.71 265.21C202.25 309.31 191.31 292.3 191.31 292.3C166.11 318.3 156.41 286.05 156.41 286.05C156.41 286.05 182.11 299.24 194.27 279.79C194.27 279.79 201.91 260.79 212.67 259.01C212.67 259.01 223.75 253.4 226.21 235.01C226.21 235.01 228.3 247.86 236.99 252.72C236.99 252.72 243.37 255.16 249.84 274.95C249.84 274.95 251.57 286.07 260.61 282.25C260.61 282.25 276.61 280.51 282.84 294.75C283.636 296.816 284.906 298.666 286.55 300.15V300.15Z" fill="black"/>
<path d="M645.58 604C589.222 646.103 520.813 668.958 450.465 669.187C380.116 669.416 311.561 647.006 254.93 605.27H254.8H254.92H255.07H255.36C255.461 605.262 255.562 605.245 255.66 605.22L257.08 605.01L257.85 604.89L260.14 604.5L260.64 604.41H260.85L262.11 604.18H262.22C263.69 603.92 265.29 603.6 267 603.18C267.43 603.1 267.86 603 268.3 602.9L269.65 602.6C270.65 602.37 271.65 602.14 272.65 601.88C273.65 601.62 275.02 601.29 276.24 600.95C278.07 600.46 279.95 599.95 281.85 599.34L284.53 598.49L286.11 597.96H286.23C288.23 597.26 290.28 596.51 292.3 595.7C292.84 595.49 293.37 595.28 293.9 595.05C294.43 594.82 295.2 594.5 295.84 594.22C295.84 594.22 327.12 579.79 371.36 577.13C381.849 576.522 392.367 577.647 402.49 580.46C416.01 584.18 436.12 590.46 450.64 598.19C450.64 598.19 492.7 576.54 542.51 578.77L544.19 578.85C548.52 579.09 552.91 579.51 557.32 580.15L558.97 580.4C560.29 580.6 561.62 580.83 562.97 581.07C564.04 581.28 565.12 581.48 566.21 581.71C567.07 581.89 567.94 582.09 568.81 582.29C569.38 582.41 569.94 582.55 570.51 582.69L572.4 583.16L573.8 583.53C574.6 583.74 575.39 583.97 576.18 584.2L578.07 584.76L579.96 585.36L581.53 585.88C582.27 586.12 583.02 586.38 583.76 586.65C584.5 586.92 585.01 587.09 585.63 587.33C586.25 587.57 586.89 587.8 587.51 588.05L587.82 588.17L589.4 588.81L590.69 589.35C592.15 589.96 593.59 590.61 595.04 591.29C595.07 591.18 621.33 603.75 645.58 604Z" fill="#00F279"/>
<path opacity="0.4" d="M645.58 604C589.222 646.103 520.813 668.958 450.465 669.187C380.116 669.416 311.561 647.006 254.93 605.27H255.07H255.36L255.66 605.22L257.08 605.01L257.85 604.89L260.14 604.5L260.64 604.41H260.85L262.11 604.18H262.22C263.69 603.91 265.29 603.6 267 603.18C267.43 603.1 267.86 603 268.3 602.9L269.65 602.6C270.65 602.37 271.65 602.14 272.65 601.88C273.65 601.62 275.02 601.28 276.24 600.95C278.07 600.46 279.95 599.95 281.85 599.34C282.74 599.07 283.63 598.78 284.53 598.49L286.11 597.96H286.23C288.23 597.26 290.28 596.51 292.3 595.7C292.84 595.49 293.37 595.28 293.9 595.05C294.43 594.82 295.2 594.5 295.84 594.22C295.84 594.22 327.12 579.79 371.36 577.13C381.849 576.522 392.367 577.647 402.49 580.46C416.01 584.18 436.12 590.46 450.64 598.19C450.64 598.19 492.7 576.54 542.51 578.77L544.19 578.85C548.52 579.09 552.91 579.51 557.32 580.15L558.97 580.4C560.29 580.6 561.62 580.83 562.97 581.07C564.04 581.28 565.12 581.48 566.21 581.71C567.07 581.89 567.94 582.09 568.81 582.29C569.38 582.41 569.94 582.55 570.51 582.69L572.4 583.16L573.8 583.53C574.6 583.74 575.39 583.97 576.18 584.2L578.07 584.76L579.96 585.36L581.53 585.88C582.27 586.12 583.02 586.38 583.76 586.65C584.5 586.92 585.01 587.09 585.63 587.33C586.25 587.57 586.89 587.8 587.51 588.05L587.82 588.17L589.4 588.81L590.69 589.35C592.15 589.96 593.59 590.61 595.04 591.29C595.07 591.18 621.33 603.75 645.58 604Z" fill="white"/>
<path opacity="0.4" d="M587.85 588.06C524.47 576 476.59 605.5 476.59 605.5C439.59 619.16 408.08 597.88 408.08 597.88C371.86 575.62 289.67 596.95 286.27 597.88C289.48 596.77 292.72 595.54 295.88 594.14C295.88 594.14 327.16 579.71 371.4 577.05C381.889 576.442 392.407 577.567 402.53 580.38C416.05 584.1 436.16 590.38 450.68 598.11C450.68 598.08 521.28 561.74 587.85 588.06Z" fill="white"/>
<path d="M490 243.9C495.099 245.894 499.88 248.623 504.19 252C509.5 256 514.45 260.33 515.93 261.19C517.41 262.05 515.09 257.9 509.98 253.71C510.56 252.23 507.75 250 505.93 249.03C508.25 249.36 508.26 246.45 501.31 242.67C502.93 242.59 502.55 240.44 494.62 237.3C499.49 238.71 500.96 237.3 492.23 234.3C492.75 233.41 487.62 230.58 475.56 230.45C479.124 230.24 482.696 230.24 486.26 230.45C489.78 230.63 490.57 230.04 487.84 229.21C485.11 228.38 479.71 228.21 474.2 228.59C477.288 228.019 480.406 227.632 483.54 227.43C486.63 227.28 487.67 226.97 486.16 226.43C484.65 225.89 478.97 225.43 469.81 227.92C472.109 227.036 474.468 226.317 476.87 225.77C478.81 225.4 482.27 224.56 479.28 224.35C476.29 224.14 468.69 225.84 462.86 227.6C465.583 226.217 468.408 225.043 471.31 224.09C473.77 223.25 476.92 221.7 472.67 222.15C468.42 222.6 462.45 224.88 458.46 226.82C461.23 224.98 464.28 223.2 464.18 222.62C464.08 222.04 459.72 223.52 454.36 226.18C455.1 224.91 456.1 223.46 451.8 225.77C449.345 227.029 447.14 228.723 445.29 230.77C445.29 230.77 447.81 227.47 447.68 226.84C447.55 226.21 444.09 228.73 442.91 231.51C443.35 229.51 441.52 228.84 440.68 233.3C439.84 237.76 442.09 239.06 442.09 239.06C442.09 239.06 456.09 238.9 462.16 238.06C468.23 237.22 483.24 241.08 490 243.9Z" fill="#3E3D57"/>
<path d="M476.59 240.61C479.642 241.169 482.65 241.947 485.59 242.94C489.43 244.06 490.99 244.81 489.31 242.56C487.63 240.31 482.95 234.56 476.71 236.21C475.496 234.44 473.907 232.958 472.056 231.871C470.205 230.784 468.137 230.118 466 229.92C462 229.6 461.46 231.7 461.46 231.7C460.728 230.968 459.848 230.401 458.878 230.037C457.909 229.673 456.873 229.521 455.84 229.59C452.37 229.85 452.17 232.14 452.17 232.14C451.207 231.5 450.079 231.151 448.922 231.137C447.765 231.123 446.629 231.443 445.65 232.06C442.02 234.16 442.05 239.18 442.05 239.18C442.05 239.18 450.05 239.75 454.79 240.13C459.53 240.51 464.72 238.43 476.59 240.61Z" fill="#3E3D57"/>
<path opacity="0.3" d="M476.59 240.61C479.642 241.169 482.65 241.947 485.59 242.94C489.43 244.06 490.99 244.81 489.31 242.56C487.63 240.31 482.95 234.56 476.71 236.21C475.496 234.44 473.907 232.958 472.056 231.871C470.205 230.784 468.137 230.118 466 229.92C462 229.6 461.46 231.7 461.46 231.7C460.728 230.968 459.848 230.401 458.878 230.037C457.909 229.673 456.873 229.521 455.84 229.59C452.37 229.85 452.17 232.14 452.17 232.14C451.207 231.5 450.079 231.151 448.922 231.137C447.765 231.123 446.629 231.443 445.65 232.06C442.02 234.16 442.05 239.18 442.05 239.18C442.05 239.18 450.05 239.75 454.79 240.13C459.53 240.51 464.72 238.43 476.59 240.61Z" fill="black"/>
<path d="M447.68 241.64C448.25 240.64 449.8 240.64 454.52 241.08C458.646 241.301 462.784 241.141 466.88 240.6C469.86 240.408 472.853 240.582 475.79 241.12C477.28 241.37 476.57 239.89 474.67 237.95C472.77 236.01 468.93 234.62 465.75 236.21C464.75 233.44 460.03 232.63 457.89 235.1C454.17 232.95 450.55 233.1 448.11 236.85L447.68 241.64Z" fill="#3E3D57"/>
<path opacity="0.4" d="M447.68 241.64C448.25 240.64 449.8 240.64 454.52 241.08C458.646 241.301 462.784 241.141 466.88 240.6C469.86 240.408 472.853 240.582 475.79 241.12C477.28 241.37 476.57 239.89 474.67 237.95C472.77 236.01 468.93 234.62 465.75 236.21C464.75 233.44 460.03 232.63 457.89 235.1C454.17 232.95 450.55 233.1 448.11 236.85L447.68 241.64Z" fill="black"/>
<g opacity="0.2">
<path d="M451.19 228.41C452.047 227.708 452.964 227.082 453.93 226.54C454 226.49 454 226.65 453.92 226.68C452.99 227.34 452.07 228 451.17 228.68C450.721 229.016 450.293 229.38 449.89 229.77L449.33 230.32C449.16 230.521 448.953 230.687 448.72 230.81V230.66C449.032 230.196 449.433 229.798 449.9 229.49L451.19 228.41Z" fill="black"/>
<path d="M461.21 228.7C461.669 228.289 462.202 227.97 462.78 227.76C462.85 227.73 462.85 227.89 462.77 227.93C462.533 228.124 462.286 228.304 462.03 228.47C461.78 228.64 461.55 228.82 461.29 229C461.03 229.18 460.78 229.36 460.54 229.56C460.346 229.726 460.135 229.87 459.91 229.99V229.89C460.291 229.44 460.728 229.04 461.21 228.7Z" fill="black"/>
<path d="M456.73 227.95L457.47 227.45H457.46C457.642 227.292 457.863 227.185 458.1 227.14V227.25C457.915 227.487 457.683 227.685 457.42 227.83C457.21 227.99 456.99 228.14 456.78 228.31L456.13 228.81L455.79 229.07L455.63 229.19H455.45V229.06C455.467 228.989 455.501 228.924 455.55 228.87L455.7 228.74L456.05 228.46L456.73 227.95Z" fill="black"/>
<path d="M489.36 233.73C489.93 233.8 490.495 233.911 491.05 234.06L491.02 234.02C490.473 233.889 489.919 233.792 489.36 233.73Z" fill="black"/>
<path d="M493.91 242.68C493.86 242.67 493.91 242.61 493.91 242.61H493.92C496.006 243.19 498.019 244.005 499.92 245.04C500.88 245.55 501.81 246.11 502.73 246.69C503.673 247.244 504.572 247.869 505.42 248.56C505.427 248.57 505.431 248.582 505.432 248.594C505.434 248.606 505.432 248.618 505.427 248.629C505.421 248.64 505.414 248.65 505.404 248.657C505.394 248.664 505.382 248.669 505.37 248.67C504.47 248.17 503.62 247.65 502.75 247.04C501.88 246.43 500.99 245.94 500.09 245.43C498.131 244.301 496.06 243.379 493.91 242.68Z" fill="black"/>
<path d="M481.98 232.71C483.871 232.801 485.75 233.049 487.6 233.45L487.61 233.47C485.72 233.35 483.9 233.16 482.01 233.04C480.12 232.92 478.24 232.88 476.35 232.82C476.29 232.82 476.35 232.71 476.35 232.71C478.225 232.59 480.105 232.59 481.98 232.71Z" fill="black"/>
</g>
<path d="M451.57 252.49C450.154 252.886 448.69 253.084 447.22 253.08C444.72 253.15 441.22 252.34 435.92 252C435.92 248.84 442.92 243.28 448.67 244C454.42 244.72 456.57 250.34 451.57 252.49Z" fill="#00F279"/>
<g opacity="0.2">
<path d="M451.57 252.49C450.154 252.886 448.69 253.084 447.22 253.08C444.72 253.15 441.22 252.34 435.92 252C435.92 248.84 442.92 243.28 448.67 244C454.42 244.72 456.57 250.34 451.57 252.49Z" fill="white"/>
</g>
<path d="M436.67 251.72C432.376 247.849 427.829 244.268 423.06 241C417.24 237.3 407.53 233.57 407.45 233.57L406.71 232.99C408.028 236.389 409.859 239.566 412.14 242.41C415.012 246.001 418.896 248.645 423.29 250C427.7 251.35 432.48 252.42 435.97 252.42H437.37L436.67 251.72Z" fill="white"/>
<path d="M425.1 246.66C423.29 244.18 419.48 241.66 413.95 239.31C408.59 236.99 407.5 234.11 405.88 231.44C404.57 229.21 403.33 228.6 399.55 227.3C395.77 226 388.34 225.6 379.15 224.59C369.96 223.58 346.86 220.78 343.96 220.13C342.22 219.74 343.18 218.95 345.96 219.29C348.74 219.63 364.96 221.14 373.96 221.95C368.15 220.95 369.6 218.95 373.06 219.16C377.91 219.4 382.55 220.3 385.91 220.72C383.02 219.28 383.45 217.79 386.34 217.96C388.657 218.009 390.953 218.411 393.15 219.15C389.95 217.47 392.86 215.59 395.83 217.08C394.88 214.89 394.61 211.74 396.58 211.99C393.93 206.1 394.02 202.92 395.92 203.65C395.92 203.65 392.79 194.1 392.27 192.18C391.75 190.26 392.32 189.56 393.55 192.75C394.61 195.53 401.46 214.05 404.1 218.49C406.74 222.93 408.96 224.49 412.1 225.57C415.24 226.65 427.83 228.23 433.58 230.22C439.72 232.33 442.19 234.85 446.32 236.02C448.77 236.72 453.07 235.93 456.5 238.94C459.93 241.95 459.83 246.49 458.35 248.15C457.08 249.58 454.56 250.55 453.07 249.64C451.58 248.73 452.18 247.53 450.53 246.12C448.88 244.71 446.81 244.49 444.95 246.62C443.09 248.75 440.59 252.22 435.86 251.98C431.13 251.74 428.39 251 425.1 246.66Z" fill="#3E3D57"/>
<path d="M433.64 230.22C437.88 231.41 441.52 234.06 445.64 235.59C448.39 236.54 451.51 235.98 454.22 237.26C458.22 238.79 461.22 244.35 458.44 248.15C460.95 244.34 457.99 239.08 454.08 237.58C451.38 236.36 448.3 236.93 445.52 235.93C441.37 234.37 437.84 231.62 433.64 230.22Z" fill="#3E3D57"/>
<path opacity="0.3" d="M433.64 230.22C437.88 231.41 441.52 234.06 445.64 235.59C448.39 236.54 451.51 235.98 454.22 237.26C458.22 238.79 461.22 244.35 458.44 248.15C460.95 244.34 457.99 239.08 454.08 237.58C451.38 236.36 448.3 236.93 445.52 235.93C441.37 234.37 437.84 231.62 433.64 230.22Z" fill="black"/>
<path d="M452.49 250.68C452.209 250.892 451.98 251.165 451.82 251.479C451.661 251.792 451.575 252.138 451.57 252.49C451.84 253.08 453.9 253.78 455.35 253.73C456.072 253.739 456.789 253.621 457.47 253.38C457.47 253.38 457.47 252.64 456.27 251.81C455.09 251.204 453.809 250.821 452.49 250.68V250.68Z" fill="#E0E0E0"/>
<path opacity="0.1" d="M452.49 250.68C452.209 250.892 451.98 251.165 451.82 251.479C451.661 251.792 451.575 252.138 451.57 252.49C451.84 253.08 453.9 253.78 455.35 253.73C456.072 253.739 456.789 253.621 457.47 253.38C457.47 253.38 457.47 252.64 456.27 251.81C455.09 251.204 453.809 250.821 452.49 250.68V250.68Z" fill="black"/>
<path d="M458.17 248.4C457.43 248.12 455.55 248.71 454.38 249.25C453.21 249.79 452.23 250.49 452.54 250.74C452.85 250.99 454.36 251.69 456.11 252.59C457.11 253.09 459.11 254.54 459.61 254.59C460.11 254.64 460.35 254.01 460.2 253.11C460.05 252.21 459.37 249.38 458.17 248.4Z" fill="#E0E0E0"/>
<path d="M450.34 249.38C450.34 248.86 450.39 247.59 449.41 247.01C448.43 246.43 447.5 247.24 447.09 247.34C447.102 248.034 447.369 248.7 447.84 249.21C448.61 249.94 449.73 249.44 450.34 249.38Z" fill="#3E3D57"/>
<path d="M433.42 246.48C429.8 245.99 425.82 245.16 424.01 245.68C422.2 246.2 426.2 248 426.2 248C424.134 248.051 422.084 248.388 420.11 249C417.11 250 418.48 251.88 420.85 251.76C416.69 253.67 415.51 255.76 416.97 255.87C418.43 255.98 421.76 254.78 421.76 254.78C416.07 260.28 415.87 263.05 416.9 263.23C418.39 263.48 422.5 259.06 422.5 259.06C419.75 266.35 418.93 272.5 419.27 274.86C419.61 277.22 420.69 276.69 421.5 272.69C422.24 269.17 423.95 263.78 423.95 263.78C422.17 273.85 422.2 278.56 422.5 281.57C422.8 284.58 424.05 283.85 424.45 280.97C424.85 278.09 425.55 273.04 426.25 269.97C425.682 274.838 425.448 279.74 425.55 284.64C425.77 287.8 426.13 289.26 426.65 289.47C427.17 289.68 427.46 288.56 427.65 284.77C427.84 280.98 428.39 277.18 428.39 277.18C428.39 283.44 428.51 286.61 428.74 289C428.97 291.39 429.74 292.71 430.39 292.71C431.04 292.71 430.88 289.71 431 286.06C431.12 282.41 431.37 279.27 431.37 279.27C431.378 283.884 432.01 288.476 433.25 292.92C434.35 296.5 435.8 297.38 435.8 295.52C435.8 293.66 435.25 288.18 435.43 284.43C436.21 290.22 436.32 291.82 437.61 295.52C438.68 298.52 439.45 298.99 440 299.24C441 299.65 440.66 297.39 440 292.11C441.49 298.31 442.83 302.23 444.31 303.48C445.79 304.73 445.98 303.31 445.49 301.65C444.49 298.23 443.71 293.65 443.71 293.65C445.05 297.65 446.16 300.79 447.04 302.65C447.92 304.51 449.27 306.41 450.35 306.44C451.43 306.47 450.81 304.35 449.91 301.44C452.44 306.71 453.22 308.61 455.85 310.5C457.85 311.98 457.93 309.75 456.36 306.71C453.31 300.166 450.639 293.451 448.36 286.6C446.68 281.22 433.42 246.48 433.42 246.48Z" fill="#3E3D57"/>
<path d="M433.42 246.48C429.17 247.32 425.06 250.82 427.15 252.21C425.2 256.21 424.92 259.21 427.08 259.21C426.34 265.75 427.01 270.06 429.93 269.21C431.63 275.65 435.58 281.85 437.93 277.99C440.71 284.3 443.69 288.3 447.07 288.32C450.07 288.32 447.07 277.51 447.07 277.51L433.42 246.48Z" fill="#3E3D57"/>
<path opacity="0.3" d="M433.42 246.48C429.17 247.32 425.06 250.82 427.15 252.21C425.2 256.21 424.92 259.21 427.08 259.21C426.34 265.75 427.01 270.06 429.93 269.21C431.63 275.65 435.58 281.85 437.93 277.99C440.71 284.3 443.69 288.3 447.07 288.32C450.07 288.32 447.07 277.51 447.07 277.51L433.42 246.48Z" fill="black"/>
<path d="M439.13 247.3C437.04 248.64 437.95 250.03 439.35 251.08C440.75 252.13 442.35 254.27 444.5 262.15C446.65 270.03 447.4 275.3 447.39 277.15C447.38 279 442.77 277.44 438.92 269.76C438.24 271.87 433.99 272.11 432.3 261.76C429.37 262.32 428.1 256.47 431.56 253.22C429.63 252.11 429.83 248.02 433.38 246.5L439.13 247.3Z" fill="#3E3D57"/>
<path opacity="0.4" d="M439.13 247.3C437.04 248.64 437.95 250.03 439.35 251.08C440.75 252.13 442.35 254.27 444.5 262.15C446.65 270.03 447.4 275.3 447.39 277.15C447.38 279 442.77 277.44 438.92 269.76C438.24 271.87 433.99 272.11 432.3 261.76C429.37 262.32 428.1 256.47 431.56 253.22C429.63 252.11 429.83 248.02 433.38 246.5L439.13 247.3Z" fill="black"/>
<path opacity="0.2" d="M424.17 254C423.571 254.14 422.98 254.313 422.4 254.52C422.4 254.52 422.34 254.62 422.4 254.61C423.01 254.53 423.6 254.36 424.19 254.23C424.809 254.117 425.421 253.963 426.02 253.77V253.71C425.391 253.69 424.763 253.789 424.17 254V254ZM429 270.11C428.888 270.658 428.812 271.212 428.77 271.77L428.62 273.26C428.48 274.378 428.4 275.503 428.38 276.63V276.63C428.55 275.513 428.663 274.388 428.72 273.26C428.77 272.74 428.82 272.26 428.88 271.7C428.94 271.14 429.05 270.65 429.07 270.13C429.16 270.06 429.07 270 429 270.11ZM421.36 251.61V251.68C421.95 251.53 422.54 251.32 423.14 251.16C424.09 250.9 425.05 250.76 426.01 250.54V250.48C424.419 250.583 422.858 250.965 421.4 251.61H421.36ZM425.43 258.86C425.261 259.156 425.13 259.472 425.04 259.8C424.91 260.17 424.78 260.53 424.66 260.9C424.359 261.702 424.161 262.538 424.07 263.39C424.07 263.39 424.07 263.39 424.12 263.39C424.36 262.65 424.53 261.91 424.78 261.12C424.89 260.79 425.01 260.45 425.13 260.12C425.301 259.739 425.429 259.34 425.51 258.93C425.51 258.93 425.51 258.81 425.43 258.88V258.86ZM425.2 256.7C424.717 256.932 424.269 257.232 423.87 257.59C423.491 257.903 423.131 258.236 422.79 258.59V258.59C423.15 258.28 423.54 257.97 423.89 257.68C424.24 257.39 424.78 257.08 425.2 256.76C425.2 256.76 425.26 256.62 425.2 256.65V256.7ZM442.67 288.19C442.592 287.637 442.468 287.092 442.3 286.56C442.332 287.175 442.409 287.786 442.53 288.39C442.63 288.95 442.73 289.51 442.85 290.07C443.06 291.16 443.28 292.23 443.59 293.28C443.59 293.33 443.64 293.28 443.64 293.28C443.47 292.13 443.24 291 443.02 289.86C442.94 289.3 442.83 288.77 442.71 288.19H442.67ZM431.45 274.74C431.37 275.407 431.32 276.073 431.3 276.74V277.69C431.26 278.082 431.26 278.478 431.3 278.87C431.3 278.92 431.35 278.87 431.36 278.87C431.408 278.512 431.432 278.151 431.43 277.79V276.79C431.485 276.095 431.505 275.397 431.49 274.7C431.49 274.6 431.43 274.63 431.42 274.7L431.45 274.74ZM448.69 297.51C448.37 296.61 448.06 295.7 447.69 294.79C447.06 292.96 446.47 291.08 445.86 289.27C445.86 289.14 445.71 289.27 445.73 289.36C446.19 291.2 446.73 293.03 447.35 294.83C447.66 295.74 447.98 296.64 448.35 297.54C448.646 298.481 449.031 299.392 449.5 300.26C449.5 300.31 449.57 300.26 449.56 300.2C449.338 299.282 449.043 298.382 448.68 297.51H448.69ZM439.03 283.56C438.952 282.763 438.808 281.974 438.6 281.2C438.6 281.14 438.54 281.2 438.54 281.2C438.552 282.036 438.639 282.869 438.8 283.69C438.92 284.56 439.04 285.43 439.15 286.3C439.3 288.036 439.55 289.763 439.9 291.47C439.9 291.52 439.95 291.47 439.95 291.47C439.882 289.692 439.688 287.921 439.37 286.17C439.26 285.31 439.13 284.44 439 283.56H439.03ZM435.44 280.44C435.44 280.424 435.434 280.409 435.422 280.398C435.411 280.386 435.396 280.38 435.38 280.38C435.364 280.38 435.349 280.386 435.338 280.398C435.326 280.409 435.32 280.424 435.32 280.44C435.27 281.006 435.27 281.574 435.32 282.14C435.311 282.699 435.348 283.257 435.43 283.81C435.43 283.81 435.43 283.81 435.43 283.81V282.05C435.43 281.46 435.43 280.96 435.36 280.44H435.44Z" fill="black"/>
<path opacity="0.2" d="M391.81 224.06C388.2 223.51 384.58 223.06 380.96 222.58C378.96 222.33 377.02 222 375.01 221.84C374.93 221.84 374.92 222.01 375.01 222.02C376.78 222.41 378.59 222.6 380.38 222.84L385.76 223.54C389.32 224 392.86 224.54 396.38 225.15C398.34 225.51 400.29 225.893 402.23 226.3C402.23 226.3 402.23 226.3 402.23 226.25C398.821 225.24 395.337 224.508 391.81 224.06ZM398.24 221.88C399.72 222.76 401.24 223.74 402.69 224.59C402.69 224.59 402.75 224.54 402.69 224.52C401.312 223.396 399.84 222.392 398.29 221.52C396.864 220.641 395.373 219.872 393.83 219.22C393.74 219.22 393.71 219.38 393.78 219.4C395.29 220.24 396.78 221 398.24 221.88ZM400.15 224.38C398.88 223.9 397.61 223.43 396.32 223.04C393.128 222.048 389.866 221.303 386.56 220.81C386.56 220.81 386.49 220.9 386.56 220.91C389.82 221.84 393.15 222.5 396.4 223.48C397.66 223.86 398.91 224.22 400.12 224.68C401.33 225.14 402.62 225.68 403.89 226.17C403.94 226.17 403.97 226.06 403.89 226.03C402.68 225.407 401.43 224.863 400.15 224.4V224.38ZM405.35 222.15C403.283 219.284 401.52 216.211 400.09 212.98C398.75 209.98 397.72 206.85 396.21 203.98C396.21 203.93 396.15 203.98 396.15 204.05C397.27 207.21 398.52 210.35 399.87 213.4C401.243 216.606 403.058 219.605 405.26 222.31C405.34 222.37 405.39 222.25 405.36 222.21L405.35 222.15ZM400.56 220.66C399.246 219.416 397.831 218.282 396.33 217.27C396.25 217.22 396.22 217.41 396.27 217.45C397.76 218.68 399.27 219.84 400.61 221.17C401.95 222.5 403.13 223.75 404.49 224.88C404.55 224.88 404.57 224.79 404.55 224.75C403.33 223.289 401.992 221.931 400.55 220.69L400.56 220.66ZM396.93 212.43C396.88 212.34 396.82 212.43 396.85 212.53C399.07 216.683 401.808 220.537 405 224C405.05 224.06 405.09 223.93 405.06 223.88C402.173 220.187 399.463 216.37 396.93 212.43Z" fill="black"/>
</svg>
